<svg width="100" height="100" viewBox="0 0 100 100" fill="none" xmlns="http://www.w3.org/2000/svg">
<path d="M49.7775 17.5789C33.0584 17.6881 19.1024 30.6762 19.1045 46.2444C19.1058 54.8748 23.2396 62.9621 30.4464 68.433C31.9062 69.5412 32.8106 71.0903 32.9942 72.7547C32.9039 73.2539 32.9658 72.6783 32.947 85.1563C32.947 86.7742 34.3609 88.086 36.1049 88.086H37.2628V88.1836C37.2628 94.6992 42.9765 100 49.9997 100C57.0228 100 62.7365 94.6992 62.7365 88.1836V88.086H63.8944C65.6384 88.086 67.0523 86.7742 67.0523 85.1563C67.0314 72.7278 67.1015 73.2244 66.9965 72.7022C67.1493 71.0813 67.9843 69.6045 69.3437 68.5906C76.6847 63.1158 80.8948 54.9696 80.8948 46.2405C80.8946 30.2897 66.9056 17.4612 49.7775 17.5789V17.5789ZM60.7365 76.1719V82.2266H39.2628V76.1719H60.7365ZM56.4207 88.1836C56.4207 91.4684 53.5403 94.1406 49.9997 94.1406C46.459 94.1406 43.5786 91.4684 43.5786 88.1836V88.086H56.4207V88.1836ZM65.3864 64.0239C63.2127 65.6449 61.7133 67.8504 61.0462 70.3125H38.914C38.2112 67.8326 36.6693 65.5864 34.446 63.8983C28.711 59.5446 25.4213 53.1098 25.4203 46.2436C25.4186 33.9682 36.5931 23.5244 49.822 23.4381C49.8818 23.4377 49.9409 23.4375 50.0005 23.4375C63.5792 23.4375 74.579 33.6307 74.579 46.2405C74.5788 53.1852 71.2283 59.667 65.3864 64.0239Z" fill="url(#paint0_linear)"/>
<path d="M60.2747 40.2635L53.1578 45.3862V42.5782C53.1578 40.1454 50.1349 38.7727 48.0641 40.2635L35.8536 49.0526C34.4757 50.0444 34.2252 51.8848 35.2945 53.1632C36.365 54.4434 38.3492 54.6725 39.7252 53.6819L46.842 48.5592V51.3673C46.842 53.7999 49.865 55.1729 51.9357 53.6819L64.1463 44.8928C65.5241 43.901 65.7747 42.0606 64.7054 40.7823C63.6364 39.504 61.6528 39.2717 60.2747 40.2635Z" fill="url(#paint1_linear)"/>
<path d="M50.0002 11.9141C51.7442 11.9141 53.1581 10.6023 53.1581 8.98438V2.92969C53.1581 1.31172 51.7442 0 50.0002 0C48.2562 0 46.8423 1.31172 46.8423 2.92969V8.98438C46.8423 10.6023 48.2562 11.9141 50.0002 11.9141Z" fill="url(#paint2_linear)"/>
<path d="M19.2594 22.0107C20.4925 23.1548 22.492 23.155 23.7253 22.0107C24.9586 20.8665 24.9586 19.0116 23.7253 17.8675L19.1106 13.5863C17.8775 12.4421 15.8779 12.4421 14.6447 13.5863C13.4114 14.7304 13.4114 16.5853 14.6447 17.7294L19.2594 22.0107Z" fill="url(#paint3_linear)"/>
<path d="M12.8421 46.3867C12.8421 44.7687 11.4282 43.457 9.68421 43.457H3.15789C1.41389 43.457 0 44.7687 0 46.3867C0 48.0047 1.41389 49.3164 3.15789 49.3164H9.68421C11.4282 49.3164 12.8421 48.0047 12.8421 46.3867Z" fill="url(#paint4_linear)"/>
<path d="M96.8424 43.457H90.3161C88.5721 43.457 87.1582 44.7687 87.1582 46.3867C87.1582 48.0047 88.5721 49.3164 90.3161 49.3164H96.8424C98.5864 49.3164 100 48.0047 100 46.3867C100 44.7687 98.5864 43.457 96.8424 43.457Z" fill="url(#paint5_linear)"/>
<path d="M94.4847 60.3104L88.4552 57.9934C86.844 57.374 84.9967 58.084 84.3291 59.5789C83.6617 61.0738 84.4268 62.7875 86.0381 63.4069L92.0676 65.7238C93.6851 66.3455 95.5287 65.6274 96.1937 64.1383C96.8611 62.6432 96.096 60.9295 94.4847 60.3104Z" fill="url(#paint6_linear)"/>
<path d="M31.6542 12.9526C32.3207 14.4452 34.1666 15.1582 35.7803 14.5381C37.3917 13.919 38.1567 12.2051 37.4894 10.7102L34.9919 5.11645C34.3243 3.62173 32.4771 2.91196 30.8658 3.5309C29.2544 4.15005 28.4894 5.86391 29.1567 7.35883L31.6542 12.9526Z" fill="url(#paint7_linear)"/>
<path d="M13.9612 29.3668L7.93175 27.0498C6.32038 26.4304 4.47322 27.1404 3.80565 28.6353C3.13828 30.1302 3.90333 31.8439 5.5147 32.4633L11.5442 34.7802C13.1616 35.4019 15.0052 34.6838 15.6703 33.1947C16.3376 31.6998 15.5726 29.9859 13.9612 29.3668Z" fill="url(#paint8_linear)"/>
<path d="M80.7405 22.0107L85.3552 17.7294C86.5885 16.5853 86.5885 14.7304 85.3552 13.5863C84.1221 12.4421 82.1226 12.4421 80.8893 13.5863L76.2746 17.8675C75.0413 19.0116 75.0413 20.8665 76.2746 22.0107C77.5074 23.1548 79.5072 23.155 80.7405 22.0107Z" fill="url(#paint9_linear)"/>
<path d="M64.2197 14.5383C65.8374 15.1598 67.6808 14.4418 68.3459 12.9527L70.8433 7.35898C71.5107 5.86406 70.7456 4.15039 69.1343 3.53105C67.5229 2.91211 65.6757 3.62168 65.0082 5.1166L62.5107 10.7104C61.8433 12.2053 62.6086 13.9189 64.2197 14.5383Z" fill="url(#paint10_linear)"/>
<path d="M11.5447 57.9933L5.51519 60.3103C3.90382 60.9295 3.13877 62.6433 3.80613 64.1383C4.47245 65.6306 6.31856 66.3441 7.93224 65.7238L13.9617 63.4068C15.5731 62.7877 16.3381 61.0738 15.6708 59.5789C15.0032 58.084 13.1562 57.3738 11.5447 57.9933V57.9933Z" fill="url(#paint11_linear)"/>
<path d="M84.329 33.1947C84.9953 34.6871 86.8414 35.4006 88.4551 34.7802L94.4845 32.4633C96.0959 31.8441 96.861 30.1302 96.1936 28.6353C95.5262 27.1404 93.6791 26.4304 92.0675 27.0498L86.038 29.3668C84.4269 29.9859 83.6618 31.6998 84.329 33.1947Z" fill="url(#paint12_linear)"/>
<defs>
<linearGradient id="paint0_linear" x1="49.9997" y1="17.5781" x2="49.9997" y2="100" gradientUnits="userSpaceOnUse">
<stop stop-color="#DDC2AE"/>
<stop offset="1" stop-color="#0A0402"/>
</linearGradient>
<linearGradient id="paint1_linear" x1="49.9999" y1="39.6449" x2="49.9999" y2="54.3006" gradientUnits="userSpaceOnUse">
<stop stop-color="#DDC2AE"/>
<stop offset="1" stop-color="#0A0402"/>
</linearGradient>
<linearGradient id="paint2_linear" x1="50.0002" y1="0" x2="50.0002" y2="11.9141" gradientUnits="userSpaceOnUse">
<stop stop-color="#DDC2AE"/>
<stop offset="1" stop-color="#0A0402"/>
</linearGradient>
<linearGradient id="paint3_linear" x1="19.185" y1="12.7281" x2="19.185" y2="22.8688" gradientUnits="userSpaceOnUse">
<stop stop-color="#DDC2AE"/>
<stop offset="1" stop-color="#0A0402"/>
</linearGradient>
<linearGradient id="paint4_linear" x1="6.42105" y1="43.457" x2="6.42105" y2="49.3164" gradientUnits="userSpaceOnUse">
<stop stop-color="#DDC2AE"/>
<stop offset="1" stop-color="#0A0402"/>
</linearGradient>
<linearGradient id="paint5_linear" x1="93.5793" y1="43.457" x2="93.5793" y2="49.3164" gradientUnits="userSpaceOnUse">
<stop stop-color="#DDC2AE"/>
<stop offset="1" stop-color="#0A0402"/>
</linearGradient>
<linearGradient id="paint6_linear" x1="90.2614" y1="57.7695" x2="90.2614" y2="65.9479" gradientUnits="userSpaceOnUse">
<stop stop-color="#DDC2AE"/>
<stop offset="1" stop-color="#0A0402"/>
</linearGradient>
<linearGradient id="paint7_linear" x1="33.323" y1="3.30725" x2="33.323" y2="14.762" gradientUnits="userSpaceOnUse">
<stop stop-color="#DDC2AE"/>
<stop offset="1" stop-color="#0A0402"/>
</linearGradient>
<linearGradient id="paint8_linear" x1="9.73796" y1="26.8259" x2="9.73796" y2="35.0043" gradientUnits="userSpaceOnUse">
<stop stop-color="#DDC2AE"/>
<stop offset="1" stop-color="#0A0402"/>
</linearGradient>
<linearGradient id="paint9_linear" x1="80.8149" y1="12.7281" x2="80.8149" y2="22.8688" gradientUnits="userSpaceOnUse">
<stop stop-color="#DDC2AE"/>
<stop offset="1" stop-color="#0A0402"/>
</linearGradient>
<linearGradient id="paint10_linear" x1="66.677" y1="3.30737" x2="66.677" y2="14.7622" gradientUnits="userSpaceOnUse">
<stop stop-color="#DDC2AE"/>
<stop offset="1" stop-color="#0A0402"/>
</linearGradient>
<linearGradient id="paint11_linear" x1="9.73845" y1="57.7694" x2="9.73845" y2="65.9477" gradientUnits="userSpaceOnUse">
<stop stop-color="#DDC2AE"/>
<stop offset="1" stop-color="#0A0402"/>
</linearGradient>
<linearGradient id="paint12_linear" x1="90.2613" y1="26.8259" x2="90.2613" y2="35.0041" gradientUnits="userSpaceOnUse">
<stop stop-color="#DDC2AE"/>
<stop offset="1" stop-color="#0A0402"/>
</linearGradient>
</defs>
</svg>
