<svg width="103" height="103" viewBox="0 0 103 103" fill="none" xmlns="http://www.w3.org/2000/svg">
<rect width="103" height="103" fill="#E5E5E5"/>
<rect x="-66.5" y="-2351.5" width="413" height="5601" fill="#FFFFF4"/>
<circle cx="51.5" cy="51.5" r="51.5" fill="#EFD9D1"/>
<rect x="-66.5" y="-2351.5" width="413" height="5601" stroke="black"/>
<path d="M51.8444 29.3053C40.141 29.3817 30.3718 38.4733 30.3733 49.3711C30.3742 55.4124 33.2679 61.0735 38.3126 64.9031C39.3345 65.6789 39.9676 66.7632 40.0961 67.9283C40.0328 68.2778 40.0762 67.8748 40.0631 76.6094C40.0631 77.742 41.0528 78.6602 42.2736 78.6602H43.0841V78.7285C43.0841 83.2895 47.0837 87 51.9999 87C56.9161 87 60.9157 83.2895 60.9157 78.7285V78.6602H61.7262C62.947 78.6602 63.9367 77.742 63.9367 76.6094C63.9222 67.9094 63.9712 68.2571 63.8977 67.8915C64.0047 66.7569 64.5891 65.7232 65.5407 65.0135C70.6794 61.1811 73.6265 55.4787 73.6265 49.3683C73.6264 38.2028 63.834 29.2228 51.8444 29.3053ZM59.5157 70.3203V74.5586H44.4841V70.3203H59.5157ZM56.4946 78.7285C56.4946 81.0279 54.4783 82.8985 51.9999 82.8985C49.5215 82.8985 47.5052 81.0279 47.5052 78.7285V78.6602H56.4946V78.7285ZM62.7706 61.8167C61.249 62.9515 60.1995 64.4953 59.7325 66.2188H44.2399C43.748 64.4828 42.6687 62.9104 41.1123 61.7288C37.0979 58.6812 34.7951 54.1769 34.7943 49.3705C34.7932 40.7777 42.6153 33.4671 51.8755 33.4067C51.9174 33.4064 51.9588 33.4063 52.0005 33.4063C61.5056 33.4063 69.2055 40.5415 69.2055 49.3683C69.2053 54.2296 66.8599 58.7669 62.7706 61.8167Z" fill="#0A0402"/>
<path d="M59.1923 45.1845L54.2105 48.7704V46.8048C54.2105 45.1018 52.0944 44.1409 50.6449 45.1845L42.0975 51.3369C41.133 52.0311 40.9576 53.3194 41.7061 54.2142C42.4555 55.1104 43.8444 55.2708 44.8076 54.5774L49.7894 50.9915V52.9571C49.7894 54.6599 51.9055 55.6211 53.355 54.5774L61.9024 48.425C62.8669 47.7308 63.0423 46.4425 62.2938 45.5476C61.5455 44.6528 60.1569 44.4903 59.1923 45.1845Z" fill="#0A0402"/>
<path d="M52.0001 25.3398C53.2209 25.3398 54.2106 24.4216 54.2106 23.2891V19.0508C54.2106 17.9182 53.2209 17 52.0001 17C50.7793 17 49.7896 17.9182 49.7896 19.0508V23.2891C49.7896 24.4216 50.7793 25.3398 52.0001 25.3398Z" fill="#0A0402"/>
<path d="M30.4813 32.4074C31.3444 33.2083 32.7441 33.2085 33.6074 32.4074C34.4707 31.6065 34.4707 30.3081 33.6074 29.5072L30.3771 26.5103C29.514 25.7094 28.1143 25.7094 27.251 26.5103C26.3877 27.3112 26.3877 28.6097 27.251 29.4106L30.4813 32.4074Z" fill="#0A0402"/>
<path d="M25.9895 49.4707C25.9895 48.3381 24.9997 47.4199 23.7789 47.4199H19.2105C17.9897 47.4199 17 48.3381 17 49.4707C17 50.6033 17.9897 51.5215 19.2105 51.5215H23.7789C24.9997 51.5215 25.9895 50.6033 25.9895 49.4707Z" fill="#0A0402"/>
<path d="M84.7894 47.4199H80.221C79.0002 47.4199 78.0105 48.3381 78.0105 49.4707C78.0105 50.6033 79.0002 51.5215 80.221 51.5215H84.7894C86.0102 51.5215 87 50.6033 87 49.4707C87 48.3381 86.0102 47.4199 84.7894 47.4199Z" fill="#0A0402"/>
<path d="M83.1396 59.2173L78.9189 57.5954C77.7911 57.1619 76.498 57.6589 76.0307 58.7053C75.5635 59.7517 76.099 60.9513 77.227 61.3848L81.4476 63.0067C82.5799 63.4419 83.8704 62.9392 84.3359 61.8969C84.8031 60.8503 84.2675 59.6507 83.1396 59.2173Z" fill="#0A0402"/>
<path d="M39.158 26.0668C39.6246 27.1116 40.9167 27.6108 42.0463 27.1767C43.1743 26.7433 43.7098 25.5436 43.2426 24.4971L41.4944 20.5815C41.0271 19.5352 39.7341 19.0384 38.6061 19.4716C37.4782 19.905 36.9426 21.1047 37.4098 22.1512L39.158 26.0668Z" fill="#0A0402"/>
<path d="M26.7731 37.5568L22.5525 35.9349C21.4245 35.5014 20.1315 35.9983 19.6642 37.0448C19.197 38.0912 19.7326 39.2908 20.8605 39.7243L25.0812 41.3462C26.2134 41.7814 27.5039 41.2787 27.9694 40.2363C28.4366 39.1899 27.9011 37.9902 26.7731 37.5568Z" fill="#0A0402"/>
<path d="M73.5185 32.4074L76.7488 29.4106C77.6121 28.6097 77.6121 27.3112 76.7488 26.5103C75.8856 25.7094 74.4859 25.7094 73.6227 26.5103L70.3923 29.5072C69.5291 30.3081 69.5291 31.6065 70.3923 32.4074C71.2553 33.2083 72.6552 33.2085 73.5185 32.4074Z" fill="#0A0402"/>
<path d="M61.9535 27.1768C63.0859 27.6119 64.3763 27.1093 64.8418 26.0669L66.59 22.1513C67.0572 21.1049 66.5217 19.9053 65.3937 19.4718C64.2657 19.0385 62.9727 19.5352 62.5054 20.5816L60.7572 24.4973C60.29 25.5437 60.8257 26.7433 61.9535 27.1768Z" fill="#0A0402"/>
<path d="M25.0812 57.5953L20.8605 59.2172C19.7326 59.6506 19.197 60.8503 19.6642 61.8968C20.1306 62.9415 21.4229 63.4409 22.5525 63.0067L26.7731 61.3848C27.9011 60.9514 28.4366 59.7517 27.9694 58.7052C27.5021 57.6588 26.2093 57.1617 25.0812 57.5953Z" fill="#0A0402"/>
<path d="M76.0306 40.2363C76.497 41.281 77.7893 41.7804 78.9188 41.3462L83.1395 39.7243C84.2674 39.2909 84.803 38.0912 84.3358 37.0448C83.8687 35.9983 82.5756 35.5014 81.4475 35.9349L77.2269 37.5568C76.0991 37.9902 75.5636 39.1899 76.0306 40.2363Z" fill="#0A0402"/>
</svg>
