<svg width="34" height="42" viewBox="0 0 34 42" fill="none" xmlns="http://www.w3.org/2000/svg">
<path d="M21.1663 0.166687H4.49967C3.39461 0.166687 2.3348 0.605674 1.5534 1.38708C0.771994 2.16848 0.333008 3.22829 0.333008 4.33335V37.6667C0.333008 38.7718 0.771994 39.8316 1.5534 40.613C2.3348 41.3944 3.39461 41.8334 4.49967 41.8334H29.4997C30.6047 41.8334 31.6645 41.3944 32.446 40.613C33.2274 39.8316 33.6663 38.7718 33.6663 37.6667V12.6667L21.1663 0.166687ZM11.6788 32.275C12.2518 32.275 12.8893 32.1479 13.2663 32L13.5538 33.4854C13.2038 33.6604 12.4163 33.8479 11.3934 33.8479C8.48301 33.8479 6.98301 32.0375 6.98301 29.6375C6.98092 26.7667 9.03092 25.1667 11.5788 25.1667C12.5663 25.1667 13.3143 25.3667 13.6518 25.5417L13.2643 27.0542C12.7569 26.8453 12.2129 26.7398 11.6643 26.7438C10.1518 26.7438 8.97676 27.6563 8.97676 29.5292C8.97884 31.2125 9.98092 32.275 11.6788 32.275V32.275ZM16.8684 33.8479C15.908 33.8479 14.958 33.6 14.483 33.3375L14.8705 31.7625C15.383 32.025 16.1705 32.2875 16.983 32.2875C17.858 32.2875 18.3205 31.925 18.3205 31.375C18.3205 30.85 17.9205 30.55 16.908 30.1875C15.508 29.7 14.5976 28.9271 14.5976 27.7021C14.5976 26.2667 15.7955 25.1667 17.783 25.1667C18.7309 25.1667 19.4309 25.3667 19.9309 25.5896L19.5059 27.1271C18.9567 26.861 18.3538 26.7242 17.7434 26.7271C16.9184 26.7271 16.5205 27.1042 16.5205 27.5396C16.5205 28.0771 16.9955 28.3146 18.0809 28.7271C19.5684 29.2771 20.2684 30.0521 20.2684 31.2375C20.2663 32.65 19.1788 33.8479 16.8684 33.8479V33.8479ZM23.6184 33.8479C22.658 33.8479 21.708 33.6 21.233 33.3375L21.6205 31.7625C22.133 32.025 22.9205 32.2875 23.733 32.2875C24.608 32.2875 25.0705 31.925 25.0705 31.375C25.0705 30.85 24.6705 30.55 23.658 30.1875C22.258 29.7 21.3476 28.9271 21.3476 27.7021C21.3476 26.2667 22.5455 25.1667 24.533 25.1667C25.4809 25.1667 26.1809 25.3667 26.6809 25.5896L26.2559 27.1271C25.7067 26.861 25.1038 26.7242 24.4934 26.7271C23.6684 26.7271 23.2705 27.1042 23.2705 27.5396C23.2705 28.0771 23.7455 28.3146 24.8309 28.7271C26.3184 29.2771 27.0184 30.0521 27.0184 31.2375C27.0184 32.65 25.9288 33.8479 23.6184 33.8479V33.8479ZM21.1663 14.75H19.083V4.33335L29.4997 14.75H21.1663Z" fill="#0A0402"/>
</svg>
