<svg width="103" height="103" viewBox="0 0 103 103" fill="none" xmlns="http://www.w3.org/2000/svg">
<rect width="103" height="103" fill="#E5E5E5"/>
<rect x="-66.5" y="-2187.5" width="413" height="5601" fill="#FFFFF4"/>
<circle cx="51.5" cy="51.5" r="51.5" fill="#EFD9D1"/>
<path d="M78.6304 33.7391H71.3261L67.2935 27.6522C65.7717 25.3696 63.1087 24 60.3696 24H43.6304C40.8913 24 38.2283 25.3696 36.7065 27.6522L32.6739 33.7391H25.3696C20.7283 33.7391 17 37.4674 17 42.1087V71.6304C17 76.2717 20.7283 80 25.3696 80H78.6304C83.2717 80 87 76.2717 87 71.6304V42.1087C87 37.4674 83.2717 33.7391 78.6304 33.7391ZM52 73.1522C41.5761 73.1522 33.1304 64.7065 33.1304 54.2826C33.1304 43.8587 41.5761 35.4891 52 35.4891C62.4239 35.4891 70.8696 43.9348 70.8696 54.3587C70.8696 64.7065 62.4239 73.1522 52 73.1522ZM77.5652 45.5326C77.4891 45.5326 77.413 45.5326 77.2609 45.5326H74.2174C72.8478 45.4565 71.7826 44.3152 71.8587 42.9457C71.9348 41.6522 72.9239 40.663 74.2174 40.587H77.2609C78.6304 40.5109 79.7717 41.5761 79.8478 42.9457C79.9239 44.3152 78.9348 45.4565 77.5652 45.5326Z" fill="#0A0402"/>
<path d="M52 43.8589C46.2174 43.8589 41.5 48.5763 41.5 54.3589C41.5 60.1415 46.2174 64.7828 52 64.7828C57.7826 64.7828 62.5 60.0654 62.5 54.2828C62.5 48.5002 57.7826 43.8589 52 43.8589Z" fill="#0A0402"/>
<rect x="-66.5" y="-2187.5" width="413" height="5601" stroke="black"/>
</svg>
