<svg width="100" height="100" viewBox="0 0 100 100" fill="none" xmlns="http://www.w3.org/2000/svg">
<path d="M88.0435 23.913H77.6087L71.8478 15.2174C69.6739 11.9565 65.8696 10 61.9565 10H38.0435C34.1304 10 30.3261 11.9565 28.1522 15.2174L22.3913 23.913H11.9565C5.32609 23.913 0 29.2391 0 35.8696V78.0435C0 84.6739 5.32609 90 11.9565 90H88.0435C94.6739 90 100 84.6739 100 78.0435V35.8696C100 29.2391 94.6739 23.913 88.0435 23.913ZM50 80.2174C35.1087 80.2174 23.0435 68.1522 23.0435 53.2609C23.0435 38.3696 35.1087 26.413 50 26.413C64.8913 26.413 76.9565 38.4783 76.9565 53.3696C76.9565 68.1522 64.8913 80.2174 50 80.2174ZM86.5217 40.7609C86.413 40.7609 86.3043 40.7609 86.087 40.7609H81.7391C79.7826 40.6522 78.2609 39.0217 78.3696 37.0652C78.4783 35.2174 79.8913 33.8043 81.7391 33.6957H86.087C88.0435 33.587 89.6739 35.1087 89.7826 37.0652C89.8913 39.0217 88.4783 40.6522 86.5217 40.7609Z" fill="url(#paint0_linear)"/>
<path d="M50 38.3696C41.7391 38.3696 35 45.1088 35 53.3696C35 61.6305 41.7391 68.2609 50 68.2609C58.2609 68.2609 65 61.5218 65 53.2609C65 45.0001 58.2609 38.3696 50 38.3696Z" fill="url(#paint1_linear)"/>
<defs>
<linearGradient id="paint0_linear" x1="50" y1="10" x2="50" y2="90" gradientUnits="userSpaceOnUse">
<stop stop-color="#DDC2AE"/>
<stop offset="1" stop-color="#0A0402"/>
</linearGradient>
<linearGradient id="paint1_linear" x1="50" y1="38.3696" x2="50" y2="68.2609" gradientUnits="userSpaceOnUse">
<stop stop-color="#DDC2AE"/>
<stop offset="1" stop-color="#0A0402"/>
</linearGradient>
</defs>
</svg>
