<svg width="103" height="103" viewBox="0 0 103 103" fill="none" xmlns="http://www.w3.org/2000/svg">
<rect width="103" height="103" fill="#E5E5E5"/>
<rect x="-243.5" y="-2187.5" width="413" height="5601" fill="#FFFFF4"/>
<circle cx="51.5" cy="51.5" r="51.5" fill="#EFD9D1"/>
<path d="M82.7018 21.11C82.5961 20.1567 81.8435 19.4037 80.8896 19.298C64.6596 17.4955 50.8244 23.9875 39.539 35.6038C36.3093 38.9283 33.508 42.4472 31.1168 45.8433C27.07 45.6788 22.5831 47.5096 19.402 50.6904L13.6007 56.4914C12.9443 57.1477 12.8107 58.1635 13.2749 58.9673C13.739 59.771 14.6849 60.1625 15.5822 59.9227C16.9281 59.5611 19.1152 59.1408 21.2163 59.0431C21.9843 59.0073 22.6226 59.0185 23.1529 59.0591C21.8727 61.5211 20.8916 63.5837 20.5663 64.1001C20.0568 64.9108 20.1748 65.9656 20.8521 66.6427L24.2089 69.9993C19.3235 76.6617 19.2428 80.0738 19.2599 80.5571C19.2957 81.5809 20.0942 82.5401 21.4166 82.5401C22.5617 82.5401 25.8459 82.0541 31.8245 77.6144L35.3554 81.1451C36.0374 81.8271 37.103 81.9414 37.9148 81.4201C38.467 81.065 40.4085 80.125 42.7366 78.9085C42.775 80.6436 42.5395 83.1916 42.0284 86.6454C41.7378 88.6043 44.1194 89.7835 45.5075 88.396L51.3088 82.5951C54.3003 79.6038 56.035 75.161 55.9068 70.9932C59.4847 68.4933 63.2068 65.5442 66.6822 62.1364C78.1887 50.8533 84.4814 37.1238 82.7018 21.11ZM78.7784 23.2206C79.1058 27.6426 78.7565 31.929 77.739 36.077C75.2122 35.2813 72.742 33.7181 70.5111 31.4878C68.2722 29.2485 66.7057 26.7684 65.9131 24.2327C70.0598 23.2302 74.3491 22.8906 78.7784 23.2206ZM20.9487 54.9447L22.3021 53.5909C23.9391 51.9545 26.068 50.7759 28.1852 50.2461C27.0791 52.0015 26.0931 53.678 25.2236 55.2251C23.8804 54.9287 22.3871 54.8737 20.9487 54.9447ZM24.83 64.82C25.2738 63.9441 25.8106 62.8461 26.796 60.9844L29.4959 63.6846C28.4912 64.7623 27.5843 65.7861 26.7672 66.7565L24.83 64.82ZM34.8598 64.0355C36.3542 62.5417 37.7871 62.2688 39.5673 62.2304C39.5283 63.965 39.25 65.4465 37.7604 66.9359C31.393 73.303 27.0283 76.1463 24.4182 77.4152C25.7059 74.7551 28.5569 70.3379 34.8598 64.0355ZM37.1665 77.1557L35.0515 75.0403C36.0171 74.22 37.0378 73.3105 38.1145 72.3022L40.9885 75.1759C39.0989 76.1848 38.3105 76.5645 37.1665 77.1557ZM48.4076 79.6946L46.7658 81.3368C46.8988 79.3474 46.8529 77.898 46.6649 76.7797C48.1731 75.9305 49.8112 74.9676 51.5278 73.8904C51.0386 76.0587 49.9389 78.164 48.4076 79.6946ZM44.7224 73.1091L41.0451 69.4316C43.7663 66.4377 43.6648 63.5527 43.6648 60.1822C43.6648 59.0495 42.7467 58.1315 41.6139 58.1315C38.4649 58.1315 35.4344 57.9627 32.3639 60.7515L28.8523 57.2401C38.4414 40.4264 49.5255 29.7815 61.9789 25.398C62.9649 28.5879 64.8839 31.6614 67.611 34.3883C70.3252 37.1029 73.3845 39.017 76.5608 40.0066C72.1513 52.3909 61.5084 63.4672 44.7224 73.1091Z" fill="#0A0402"/>
<path d="M64.9283 37.0717C60.8321 32.9761 54.1673 32.9761 50.0717 37.0717C45.9761 41.1678 45.9761 47.8325 50.0717 51.9281C54.1673 56.0237 60.8321 56.0242 64.9283 51.9281C69.0239 47.8325 69.0239 41.1678 64.9283 37.0717ZM61.957 48.9568C59.4994 51.4144 55.5001 51.4144 53.043 48.9568C50.5854 46.4993 50.5854 42.5005 53.043 40.043C55.5001 37.586 59.4988 37.5854 61.957 40.043C64.4146 42.5005 64.4146 46.4993 61.957 48.9568Z" fill="#0A0402"/>
<rect x="-243.5" y="-2187.5" width="413" height="5601" stroke="black"/>
</svg>
