<svg width="28" height="42" viewBox="0 0 28 42" fill="none" xmlns="http://www.w3.org/2000/svg">
<path d="M20.9422 14.0583C22.7469 14.0042 24.4595 13.2492 25.7169 11.9535C26.9743 10.6577 27.6776 8.92322 27.6776 7.11769C27.6776 5.31216 26.9743 3.57763 25.7169 2.28192C24.4595 0.986212 22.7469 0.231225 20.9422 0.177063H7.05883C5.25412 0.231225 3.54146 0.986212 2.28406 2.28192C1.02665 3.57763 0.323381 5.31216 0.323381 7.11769C0.323381 8.92322 1.02665 10.6577 2.28406 11.9535C3.54146 13.2492 5.25412 14.0042 7.05883 14.0583C5.23834 14.0898 3.50307 14.8352 2.22679 16.1338C0.950512 17.4323 0.235352 19.1803 0.235352 21.001C0.235352 22.8218 0.950512 24.5697 2.22679 25.8683C3.50307 27.1669 5.23834 27.9122 7.05883 27.9437C5.24723 27.9881 3.52476 28.739 2.25917 30.0359C0.993583 31.3329 0.285163 33.0733 0.285163 34.8854C0.285163 36.6975 0.993583 38.4379 2.25917 39.7349C3.52476 41.0318 5.24723 41.7827 7.05883 41.8271C8.8999 41.826 10.6652 41.094 11.9668 39.7919C13.2685 38.4899 13.9999 36.7244 14.0005 34.8833V14.0583H20.9422Z" fill="#0A0402"/>
<path d="M20.9417 27.9417C24.7754 27.9417 27.8833 24.8338 27.8833 21C27.8833 17.1662 24.7754 14.0583 20.9417 14.0583C17.1079 14.0583 14 17.1662 14 21C14 24.8338 17.1079 27.9417 20.9417 27.9417Z" fill="#0A0402"/>
</svg>
