<svg width="25" height="37" viewBox="0 0 25 37" fill="none" xmlns="http://www.w3.org/2000/svg">
<path d="M21.3442 12.5661C22.6752 11.8998 23.7432 10.801 24.375 9.44791C25.0068 8.09481 25.1652 6.5668 24.8246 5.11179C24.4841 3.65679 23.6644 2.36015 22.4987 1.43225C21.333 0.504359 19.8897 -0.000354778 18.4028 1.87108e-07H6.59723C5.11035 -0.000354778 3.66697 0.504359 2.50127 1.43225C1.33557 2.36015 0.515942 3.65679 0.175363 5.11179C-0.165216 6.5668 -0.00676126 8.09481 0.625018 9.44791C1.2568 10.801 2.32483 11.8998 3.65584 12.5661C2.55773 13.1154 1.63381 13.9618 0.987979 15.0101C0.342146 16.0584 2.63049e-07 17.267 9.10162e-06 18.5001C1.79402e-05 19.7331 0.342181 20.9417 0.988029 21.99C1.63388 23.0383 2.5578 23.8847 3.65593 24.434C2.60426 24.9609 1.7117 25.7607 1.07054 26.7506C0.429376 27.7405 0.0628913 28.8846 0.0089829 30.0647C-0.0449255 31.2447 0.215699 32.4178 0.763906 33.4626C1.31211 34.5074 2.128 35.386 3.12719 36.0077C4.12639 36.6293 5.27262 36.9712 6.44736 36.9983C7.62209 37.0253 8.78268 36.7364 9.80911 36.1613C10.8355 35.5863 11.6905 34.7461 12.2857 33.7276C12.8809 32.7091 13.1946 31.5492 13.1944 30.3679V22.5634C13.8016 23.3506 14.5775 23.99 15.4643 24.4343C16.3511 24.8785 17.3261 25.1162 18.3169 25.1296C19.3076 25.143 20.2886 24.9318 21.187 24.5116C22.0854 24.0915 22.878 23.4733 23.5061 22.7028C24.1341 21.9324 24.5814 21.0296 24.8146 20.0615C25.0479 19.0935 25.0612 18.085 24.8535 17.1111C24.6457 16.1371 24.2224 15.2227 23.6148 14.4359C23.0073 13.649 22.2312 13.0099 21.3442 12.5661ZM23.6111 6.63214C23.6095 8.01971 23.0608 9.35004 22.0851 10.3315C21.1094 11.313 19.7864 11.8655 18.4062 11.868L18.4028 11.8679L18.3961 11.868L13.1944 11.8679V1.39624H18.4028C19.7836 1.39781 21.1075 1.94996 22.0839 2.93154C23.0603 3.91312 23.6095 5.24397 23.6111 6.63214ZM14.3606 13.2641C13.925 13.6048 13.5333 13.9986 13.1944 14.4366V13.2641L14.3606 13.2641ZM1.3889 6.63214C1.39046 5.24397 1.9397 3.91312 2.91611 2.93154C3.89252 1.94996 5.21637 1.39781 6.59723 1.39624H11.8056V11.8679H6.59723L6.59393 11.8679C5.21366 11.8655 3.89067 11.313 2.91497 10.3315C1.93927 9.35005 1.39048 8.01971 1.3889 6.63214ZM6.59723 35.6038C5.91291 35.6043 5.2352 35.4693 4.60281 35.2064C3.97043 34.9436 3.39577 34.558 2.91169 34.0717C2.42761 33.5855 2.0436 33.0081 1.78159 32.3726C1.51959 31.7371 1.38473 31.0559 1.38473 30.3679C1.38473 29.68 1.51959 28.9988 1.78159 28.3633C2.0436 27.7278 2.42761 27.1504 2.91169 26.6642C3.39577 26.1779 3.97043 25.7923 4.60281 25.5295C5.2352 25.2666 5.91291 25.1316 6.59723 25.1321L11.8056 25.132V30.3679C11.804 31.7561 11.2547 33.0869 10.2783 34.0685C9.30192 35.0501 7.97807 35.6022 6.59723 35.6038ZM11.8056 23.7357L6.59723 23.7359C5.21634 23.7357 3.89206 23.1842 2.91555 22.2026C1.93905 21.2211 1.39024 19.8899 1.3898 18.5017C1.38937 17.1135 1.93733 15.7819 2.91322 14.7998C3.88911 13.8176 5.21304 13.2653 6.59393 13.2642L6.59723 13.2643L11.8056 13.2641V23.7357ZM18.4028 23.7359C17.0223 23.7355 15.6985 23.1841 14.7222 22.203C13.746 21.2218 13.1971 19.8912 13.1962 18.5034C13.1953 17.1157 13.7425 15.7844 14.7175 14.802C15.6925 13.8196 17.0156 13.2665 18.3961 13.2643H18.4028L18.4061 13.2642C19.7865 13.2659 21.1098 13.8186 22.0852 14.8007C23.0606 15.7827 23.6082 17.1139 23.6078 18.5017C23.6073 19.8895 23.0589 21.2203 22.0829 22.2018C21.1069 23.1832 19.7832 23.735 18.4028 23.7359Z" fill="#FFFFF4"/>
</svg>
