<svg width="35" height="35" viewBox="0 0 35 35" fill="none" xmlns="http://www.w3.org/2000/svg">
<g clip-path="url(#clip0)">
<path d="M17.5 0.729004C7.83125 0.729004 0 8.429 0 17.9257C0 25.525 5.01375 31.9694 11.9656 34.2415C12.8406 34.4034 13.1615 33.8711 13.1615 33.4146C13.1615 33.0063 13.1469 31.9242 13.1396 30.4907C8.27167 31.5275 7.245 28.1836 7.245 28.1836C6.44875 26.1988 5.29812 25.668 5.29812 25.668C3.71292 24.6019 5.42063 24.6238 5.42063 24.6238C7.17792 24.7434 8.10104 26.3957 8.10104 26.3957C9.66146 29.025 12.1975 28.2653 13.1979 27.8263C13.3554 26.7136 13.806 25.9567 14.3063 25.5265C10.4198 25.0963 6.335 23.6175 6.335 17.0288C6.335 15.1519 7.01313 13.6178 8.13604 12.4146C7.93917 11.98 7.34854 10.2315 8.28917 7.86317C8.28917 7.86317 9.75479 7.40234 13.1017 9.6263C14.5017 9.24421 15.9892 9.05463 17.4767 9.04588C18.9642 9.05463 20.4517 9.24421 21.8517 9.6263C25.1767 7.40234 26.6423 7.86317 26.6423 7.86317C27.5829 10.2315 26.9923 11.98 26.8173 12.4146C27.9329 13.6178 28.611 15.1519 28.611 17.0288C28.611 23.635 24.5204 25.089 20.6267 25.5119C21.2392 26.0282 21.8079 27.0825 21.8079 28.694C21.8079 30.9953 21.786 32.8444 21.786 33.403C21.786 33.8536 22.0923 34.3917 22.9892 34.2196C29.9906 31.9621 35 25.5134 35 17.9257C35 8.429 27.1644 0.729004 17.5 0.729004V0.729004Z" fill="#FFFFF4"/>
</g>
<defs>
<clipPath id="clip0">
<rect width="35" height="35" fill="white"/>
</clipPath>
</defs>
</svg>
