<svg width="36" height="33" viewBox="0 0 36 33" fill="none" xmlns="http://www.w3.org/2000/svg">
<path d="M35.6987 18.3911L33.7922 12.5686C33.7931 12.5712 33.7934 12.5739 33.7943 12.5766C33.7933 12.5735 33.7928 12.5705 33.7919 12.5675C33.7918 12.5672 33.7918 12.5671 33.7918 12.5669C33.7918 12.5668 33.7918 12.5667 33.7918 12.5667L30.0071 1.01226C29.8001 0.403584 29.2305 -0.00492309 28.5774 0.000104688C27.9223 0.00345654 27.3683 0.404107 27.1657 1.02116L23.5733 11.9885H12.2379L8.63875 1.02043C8.43637 0.403898 7.88224 0.00335185 7.22734 0C7.2247 0 7.22216 0 7.21942 0C6.57455 0 6.00374 0.405993 5.79448 1.02148L2.02016 12.5656L2.01963 12.567C2.01963 12.5671 2.01963 12.5672 2.01963 12.5673C2.01868 12.5703 2.01825 12.5732 2.0173 12.5761C2.01815 12.5735 2.01847 12.5708 2.01931 12.5682L0.105845 18.3911C-0.181993 19.2701 0.130351 20.2254 0.883274 20.7685L17.4053 32.6726C17.4077 32.6744 17.4105 32.6754 17.4129 32.6772C17.42 32.6822 17.4269 32.6874 17.434 32.6921C17.4273 32.6876 17.4209 32.6826 17.4143 32.678C17.4143 32.678 17.4143 32.6779 17.4142 32.6779C17.4152 32.6788 17.4165 32.6793 17.4177 32.68C17.4186 32.6806 17.4196 32.6811 17.4205 32.6817C17.4206 32.6818 17.4207 32.6819 17.4209 32.682C17.4465 32.6996 17.473 32.7157 17.5005 32.7305C17.5043 32.7326 17.5077 32.7352 17.5115 32.7372C17.5116 32.7372 17.5116 32.7373 17.5117 32.7373C17.514 32.7385 17.5161 32.7399 17.5184 32.7411C17.5202 32.7419 17.5221 32.7424 17.5238 32.7433C17.5251 32.7439 17.5265 32.7443 17.5277 32.7449C17.5308 32.7463 17.5342 32.7473 17.5372 32.7488C17.5516 32.7556 17.5667 32.7612 17.5815 32.7672C17.5953 32.7728 17.6087 32.7794 17.6229 32.7843C17.6235 32.7846 17.6241 32.7849 17.6247 32.7851C17.627 32.7859 17.6291 32.7871 17.6316 32.7879C17.6345 32.789 17.6374 32.7901 17.6403 32.7911C17.6415 32.7914 17.6427 32.7916 17.6438 32.7919C17.6475 32.793 17.6515 32.7936 17.6552 32.7946C17.6566 32.795 17.6582 32.7952 17.6597 32.7957C17.6795 32.8016 17.7001 32.8059 17.7206 32.8104C17.7286 32.8122 17.7363 32.8147 17.7445 32.8162C17.7456 32.8164 17.7467 32.8168 17.748 32.817C17.7506 32.8176 17.753 32.8185 17.7558 32.8189C17.7601 32.8196 17.7643 32.821 17.7688 32.8216C17.7723 32.8222 17.7759 32.822 17.7793 32.8225C17.78 32.8226 17.7805 32.8225 17.7811 32.8226C17.7813 32.8226 17.7815 32.8226 17.7817 32.8226C17.8206 32.8281 17.8601 32.832 17.9004 32.832C17.9006 32.832 17.9008 32.832 17.9011 32.832C17.9012 32.832 17.9013 32.832 17.9013 32.832H17.9014C17.9016 32.832 17.9017 32.832 17.9018 32.832C17.9421 32.832 17.9816 32.8281 18.0207 32.8226C18.0208 32.8226 18.021 32.8226 18.0211 32.8226C18.0218 32.8225 18.0224 32.8226 18.023 32.8225C18.0265 32.822 18.0302 32.8222 18.0337 32.8216C18.0381 32.8209 18.0424 32.8196 18.0468 32.8189C18.0494 32.8185 18.0519 32.8176 18.0545 32.817C18.0557 32.8168 18.0567 32.8164 18.0579 32.8162C18.0661 32.8146 18.074 32.8121 18.0823 32.8103C18.1025 32.8059 18.1227 32.8016 18.1425 32.7958C18.1439 32.7953 18.1452 32.7952 18.1466 32.7948C18.1505 32.7937 18.1545 32.7931 18.1584 32.792C18.1596 32.7916 18.1609 32.7915 18.162 32.7912C18.1651 32.7902 18.1681 32.789 18.171 32.7879C18.1733 32.7871 18.1754 32.7859 18.1778 32.7851C18.1784 32.7849 18.1789 32.7846 18.1796 32.7843C18.1946 32.7791 18.2087 32.7722 18.2234 32.7662C18.237 32.7606 18.251 32.7555 18.2643 32.7493C18.2676 32.7477 18.271 32.7467 18.2742 32.7452C18.2755 32.7445 18.277 32.7441 18.2782 32.7435C18.28 32.7427 18.2819 32.7421 18.2837 32.7412C18.2861 32.7399 18.2885 32.7385 18.2908 32.7373C18.2908 32.7373 18.2909 32.7373 18.2909 32.7372C18.2948 32.7352 18.2983 32.7324 18.3022 32.7303C18.3295 32.7156 18.3559 32.6996 18.3813 32.6821C18.3833 32.6808 18.3856 32.6797 18.3878 32.6782C18.3883 32.6778 18.3889 32.6776 18.3895 32.6772C18.3919 32.6754 18.3947 32.6743 18.3972 32.6725L34.9217 20.7682C35.6742 20.2254 35.9866 19.2701 35.6987 18.3911ZM28.5878 2.0947L31.8285 11.9885H25.3471L28.5878 2.0947ZM31.261 13.6615L29.9386 15.3417L20.1855 27.7338L24.799 13.6615H31.261ZM17.099 32.2543C17.0998 32.2568 17.1012 32.2592 17.102 32.2618C17.1012 32.2592 17.0998 32.2568 17.099 32.2543ZM15.6193 27.7347L4.54986 13.6615H11.0122L15.6193 27.7347ZM7.21709 2.09459L10.4638 11.9885H3.98242L7.21709 2.09459ZM1.87534 19.4153C1.71521 19.2997 1.64887 19.0958 1.71024 18.9085L3.13264 14.5799L13.555 27.8304L1.87534 19.4153ZM17.3763 32.6505C17.373 32.6479 17.3698 32.645 17.3666 32.6423C17.366 32.6418 17.3654 32.6411 17.3646 32.6405C17.3583 32.6353 17.3521 32.63 17.3459 32.6245C17.3339 32.6141 17.3221 32.6036 17.3108 32.5925C17.3117 32.5933 17.3128 32.594 17.3137 32.5949C17.315 32.596 17.3164 32.597 17.3176 32.5981C17.3418 32.6211 17.3673 32.6426 17.3939 32.6625C17.3942 32.6627 17.3944 32.6631 17.3947 32.6633C17.396 32.6642 17.3971 32.6654 17.3983 32.6664C17.391 32.6612 17.3834 32.6561 17.3763 32.6505ZM17.9018 29.2885L15.1908 21.0074L12.7861 13.6615H23.025L17.9018 29.2885ZM18.4566 32.6245C18.4503 32.63 18.4442 32.6354 18.4377 32.6406C18.437 32.6413 18.4362 32.642 18.4355 32.6426C18.4322 32.6452 18.4292 32.6481 18.426 32.6507C18.419 32.6562 18.4114 32.6613 18.4041 32.6666C18.4054 32.6657 18.4065 32.6644 18.4078 32.6636C18.408 32.6634 18.4083 32.6632 18.4085 32.6629C18.4351 32.643 18.4604 32.6217 18.4844 32.5987C18.4854 32.5978 18.4865 32.5971 18.4875 32.5962C18.4887 32.5951 18.4901 32.5941 18.4913 32.593C18.4801 32.6038 18.4684 32.6142 18.4566 32.6245ZM33.9297 19.415L22.2517 27.8278L32.6775 14.581L34.0942 18.9077C34.1557 19.0958 34.0895 19.2997 33.9297 19.415Z" fill="#FFFFF4"/>
</svg>
