<svg width="34" height="42" viewBox="0 0 34 42" fill="none" xmlns="http://www.w3.org/2000/svg">
<path d="M21.1663 0.166687H4.49967C3.39461 0.166687 2.3348 0.605674 1.5534 1.38708C0.771994 2.16848 0.333008 3.22829 0.333008 4.33335V37.6667C0.333008 38.7718 0.771994 39.8316 1.5534 40.613C2.3348 41.3944 3.39461 41.8334 4.49967 41.8334H29.4997C30.6047 41.8334 31.6645 41.3944 32.446 40.613C33.2274 39.8316 33.6663 38.7718 33.6663 37.6667V12.6667L21.1663 0.166687ZM19.083 4.33335L29.4997 14.75H19.083V4.33335ZM9.77259 33.5H8.18926V30.5604H5.57259V33.5H3.97467V26.4729H5.57259V29.1729H8.19134V26.4729H9.77467V33.5H9.77259ZM16.0226 27.8084H14.1038V33.5H12.508V27.8084H10.6226V26.4729H16.0226V27.8084V27.8084ZM22.8705 33.5L22.7663 30.8104C22.7309 29.9667 22.7038 28.9438 22.7038 27.9209H22.6705C22.4538 28.8188 22.1601 29.8188 21.8893 30.6438L21.0351 33.3854H19.7913L19.0434 30.6625C18.7903 29.7586 18.5776 28.8438 18.4059 27.9209H18.383C18.3393 28.8709 18.3122 29.9542 18.2601 30.8292L18.1351 33.5H16.6663L17.1163 26.4729H19.2309L19.9205 28.8188C20.1372 29.6334 20.358 30.5084 20.5122 31.3313H20.5476C20.7455 30.5167 20.983 29.5896 21.2143 28.8084L21.9622 26.4729H24.0372L24.4226 33.5H22.8705V33.5ZM30.0247 33.5H25.633V26.4729H27.2309V32.1646H30.0268V33.5H30.0247Z" fill="#0A0402"/>
</svg>
