<svg width="35" height="36" viewBox="0 0 35 36" fill="none" xmlns="http://www.w3.org/2000/svg">
<g clip-path="url(#clip0)">
<path d="M34.9658 10.8606C34.8838 8.99185 34.5831 7.70712 34.1523 6.59389C33.7079 5.41223 33.0241 4.35428 32.1283 3.47481C31.2531 2.58165 30.1933 1.88762 29.031 1.44802C27.9167 1.01513 26.6449 0.712935 24.7852 0.630543C22.9116 0.541173 22.3169 0.520508 17.5649 0.520508C12.813 0.520508 12.2183 0.541173 10.3516 0.623565C8.49194 0.705957 7.21342 1.00842 6.10583 1.44104C4.92961 1.88762 3.87678 2.57467 3.00155 3.47481C2.11271 4.35428 1.4223 5.4192 0.984556 6.58718C0.553754 7.70712 0.253021 8.98487 0.171027 10.8536C0.0820887 12.7363 0.0615234 13.3339 0.0615234 18.1089C0.0615234 22.8839 0.0820887 23.4816 0.164083 25.3572C0.246076 27.226 0.547077 28.5107 0.977878 29.6239C1.4223 30.8056 2.11271 31.8635 3.00155 32.743C3.87678 33.6362 4.93655 34.3302 6.09889 34.7698C7.21342 35.2027 8.48499 35.5049 10.3449 35.5873C12.2113 35.6699 12.8064 35.6903 17.5583 35.6903C22.3102 35.6903 22.905 35.6699 24.7716 35.5873C26.6313 35.5049 27.9098 35.2027 29.0174 34.7698C31.3696 33.856 33.2293 31.9872 34.1387 29.6239C34.5692 28.504 34.8702 27.226 34.9522 25.3572C35.0342 23.4816 35.0547 22.8839 35.0547 18.1089C35.0547 13.3339 35.0478 12.7363 34.9658 10.8606ZM31.814 25.2198C31.7387 26.9375 31.4516 27.865 31.2123 28.4833C30.6241 30.0155 29.414 31.2315 27.8892 31.8225C27.2739 32.0629 26.3442 32.3514 24.6415 32.4268C22.7955 32.5095 22.2418 32.5299 17.5719 32.5299C12.902 32.5299 12.3414 32.5095 10.502 32.4268C8.79267 32.3514 7.86964 32.0629 7.25428 31.8225C6.49551 31.5407 5.80483 31.0941 5.24423 30.5101C4.66306 29.9398 4.21864 29.2527 3.9382 28.4903C3.6989 27.8719 3.41179 26.9375 3.33674 25.2268C3.25448 23.3718 3.23418 22.8152 3.23418 18.1226C3.23418 13.43 3.25448 12.8667 3.33674 11.0186C3.41179 9.30102 3.6989 8.37351 3.9382 7.75516C4.21864 6.99243 4.66306 6.29868 5.25118 5.73509C5.81846 5.1511 6.50218 4.70451 7.26123 4.42299C7.87658 4.18252 8.80656 3.89401 10.5089 3.81833C12.355 3.73594 12.9089 3.71528 17.5786 3.71528C22.2554 3.71528 22.8091 3.73594 24.6485 3.81833C26.3578 3.89401 27.2808 4.18252 27.8962 4.42299C28.655 4.70451 29.3456 5.1511 29.9062 5.73509C30.4874 6.30539 30.9318 6.99243 31.2123 7.75516C31.4516 8.37351 31.7387 9.30773 31.814 11.0186C31.896 12.8737 31.9165 13.43 31.9165 18.1226C31.9165 22.8152 31.896 23.3648 31.814 25.2198Z" fill="#FFFFF4"/>
<path d="M17.565 9.07422C12.6013 9.07422 8.57397 13.1208 8.57397 18.1089C8.57397 23.0969 12.6013 27.1435 17.565 27.1435C22.529 27.1435 26.556 23.0969 26.556 18.1089C26.556 13.1208 22.529 9.07422 17.565 9.07422ZM17.565 23.9694C14.3448 23.9694 11.7327 21.345 11.7327 18.1089C11.7327 14.8728 14.3448 12.2483 17.565 12.2483C20.7855 12.2483 23.3972 14.8728 23.3972 18.1089C23.3972 21.345 20.7855 23.9694 17.565 23.9694Z" fill="#FFFFF4"/>
<path d="M29.0105 8.71668C29.0105 9.88122 28.0706 10.8255 26.9112 10.8255C25.7521 10.8255 24.8123 9.88122 24.8123 8.71668C24.8123 7.55188 25.7521 6.60791 26.9112 6.60791C28.0706 6.60791 29.0105 7.55188 29.0105 8.71668Z" fill="#FFFFF4"/>
</g>
<defs>
<clipPath id="clip0">
<rect width="35" height="35.1699" fill="white" transform="translate(0 0.520508)"/>
</clipPath>
</defs>
</svg>
