<svg width="100" height="100" viewBox="0 0 100 100" fill="none" xmlns="http://www.w3.org/2000/svg">
<path d="M99.5676 3.01431C99.4166 1.65247 98.3416 0.576722 96.979 0.42566C73.7948 -2.14926 54.0316 7.12503 37.9107 23.7197C33.2972 28.469 29.2956 33.496 25.8799 38.3476C20.0991 38.1126 13.6896 40.7279 9.14558 45.272L0.858528 53.5591C-0.0791243 54.4967 -0.269859 55.9478 0.393135 57.096C1.05613 58.2443 2.4073 58.8035 3.68903 58.4609C5.61164 57.9444 8.73588 57.344 11.7373 57.2044C12.8344 57.1533 13.7461 57.1693 14.5037 57.2273C12.6749 60.7444 11.2734 63.6909 10.8088 64.4286C10.0809 65.5868 10.2495 67.0936 11.217 68.061L16.012 72.8561C9.03342 82.3737 8.91822 87.2482 8.94263 87.9386C8.99375 89.4012 10.1343 90.7714 12.0234 90.7714C13.6591 90.7714 18.3504 90.0771 26.8908 83.7348L31.9346 88.7786C32.9088 89.7529 34.4309 89.9162 35.5906 89.1715C36.3795 88.6642 39.1527 87.3214 42.4784 85.5834C42.5333 88.0622 42.1969 91.7022 41.4667 96.6361C41.0517 99.4346 44.4537 101.119 46.4365 99.1371L54.7236 90.85C58.9968 86.5768 61.4748 80.2299 61.2917 74.2759C66.4027 70.7046 71.7196 66.4916 76.684 61.6233C93.1208 45.5047 102.11 25.8911 99.5676 3.01431ZM93.9631 6.02945C94.4308 12.3466 93.9318 18.4699 92.4784 24.3957C88.8689 23.2589 85.3403 21.0258 82.1535 17.8398C78.9553 14.6407 76.7176 11.0977 75.5854 7.47522C81.5089 6.04318 87.636 5.55795 93.9631 6.02945ZM11.355 51.3496L13.2883 49.4155C15.6267 47.0779 18.6678 45.3941 21.6921 44.6372C20.1121 47.145 18.7037 49.5399 17.4616 51.7501C15.5428 51.3267 13.4096 51.2481 11.355 51.3496ZM16.8993 65.4571C17.5333 64.2059 18.3001 62.6373 19.7077 59.9777L23.5644 63.8351C22.1293 65.3747 20.8338 66.8372 19.6665 68.2235L16.8993 65.4571ZM31.2266 64.3363C33.3613 62.2024 35.4082 61.8125 37.9511 61.7576C37.8954 64.2356 37.4979 66.352 35.3701 68.4799C26.2743 77.5756 20.0396 81.6375 16.3111 83.4503C18.1506 79.6501 22.2231 73.3398 31.2266 64.3363ZM34.5217 83.0795L31.5005 80.0575C32.8799 78.8856 34.3378 77.5863 35.8759 76.1459L39.9813 80.2513C37.282 81.6924 36.1559 82.2349 34.5217 83.0795ZM50.5793 86.7065L48.234 89.0525C48.424 86.2106 48.3584 84.14 48.0898 82.5424C50.2444 81.3293 52.5843 79.9537 55.0364 78.4149C54.3375 81.5124 52.7666 84.5199 50.5793 86.7065ZM45.315 77.2987L40.0622 72.0451C43.9493 67.768 43.8044 63.6466 43.8044 58.8317C43.8044 57.2135 42.4929 55.902 40.8747 55.902C36.3764 55.902 32.0475 55.6609 27.6614 59.645L22.645 54.6287C36.3428 30.6091 52.1761 15.4022 69.9656 9.13995C71.374 13.697 74.1152 18.0877 78.0108 21.9833C81.888 25.8613 86.2582 28.5957 90.7954 30.0094C84.4965 47.7012 69.2934 63.5246 45.315 77.2987Z" fill="url(#paint0_linear)"/>
<path d="M73.8669 26.1261C68.1547 20.4147 58.8606 20.4147 53.1492 26.1261C47.4379 31.8382 47.4379 41.1323 53.1492 46.8437C58.8606 52.555 68.1547 52.5558 73.8669 46.8437C79.5782 41.1323 79.5782 31.8382 73.8669 26.1261V26.1261ZM69.7233 42.7001C66.2962 46.1273 60.7191 46.1273 57.2928 42.7001C53.8656 39.273 53.8656 33.6967 57.2928 30.2696C60.7191 26.8432 66.2955 26.8425 69.7233 30.2696C73.1505 33.6967 73.1505 39.273 69.7233 42.7001Z" fill="url(#paint1_linear)"/>
<defs>
<linearGradient id="paint0_linear" x1="49.997" y1="0" x2="49.997" y2="99.9999" gradientUnits="userSpaceOnUse">
<stop stop-color="#DDC2AE"/>
<stop offset="1" stop-color="#0A0402"/>
</linearGradient>
<linearGradient id="paint1_linear" x1="63.5081" y1="21.8425" x2="63.5081" y2="51.1275" gradientUnits="userSpaceOnUse">
<stop stop-color="#DDC2AE"/>
<stop offset="1" stop-color="#0A0402"/>
</linearGradient>
</defs>
</svg>
