<svg width="35" height="36" viewBox="0 0 35 36" fill="none" xmlns="http://www.w3.org/2000/svg">
<path d="M31.5 0.520508H3.5C1.575 0.520508 0 2.10315 0 4.0375V32.1734C0 34.1078 1.575 35.6904 3.5 35.6904H31.5C33.425 35.6904 35 34.1078 35 32.1734V4.0375C35 2.10315 33.425 0.520508 31.5 0.520508ZM10.5 30.4149H5.25V14.5885H10.5V30.4149ZM7.875 11.599C6.125 11.599 4.725 10.1922 4.725 8.43374C4.725 6.67524 6.125 5.26845 7.875 5.26845C9.625 5.26845 11.025 6.67524 11.025 8.43374C11.025 10.1922 9.625 11.599 7.875 11.599ZM29.75 30.4149H24.5V21.0949C24.5 19.6882 23.275 18.4572 21.875 18.4572C20.475 18.4572 19.25 19.6882 19.25 21.0949V30.4149H14V14.5885H19.25V16.6987C20.125 15.2919 22.05 14.2368 23.625 14.2368C26.95 14.2368 29.75 17.0504 29.75 20.3915V30.4149Z" fill="#FFFFF4"/>
</svg>
