<svg width="35" height="36" viewBox="0 0 35 36" fill="none" xmlns="http://www.w3.org/2000/svg">
<path d="M34.6589 0.143723C34.4065 -0.0334994 34.0763 -0.0475124 33.8099 0.105506L0.400886 19.289C0.128244 19.4451 -0.0271674 19.748 0.00392981 20.0618C0.035027 20.3756 0.246294 20.6418 0.543844 20.7409L10.5206 24.0824L14.3664 34.6454C14.4821 34.9631 14.7827 35.1699 15.1129 35.1699C15.1431 35.1699 15.1742 35.1684 15.2045 35.1645C15.4194 35.1396 15.6003 35.0235 15.7281 34.8624L15.7359 34.8686L21.3953 27.7252L29.1801 30.3327C29.2625 30.3608 29.3472 30.3741 29.4318 30.3741C29.5748 30.3741 29.7169 30.335 29.842 30.2593C30.0416 30.1391 30.1783 29.937 30.2164 29.7059L34.9891 0.930696C35.0396 0.626083 34.9114 0.320121 34.6589 0.143723ZM2.73519 19.7901L29.2042 4.59099L10.9274 22.5341L2.73519 19.7901ZM15.593 24.6773C15.5114 24.789 15.4593 24.9193 15.4431 25.0567L14.7246 30.975L12.0601 23.6571L27.6173 8.3843L15.593 24.6773ZM16.2437 31.6607L16.9043 26.2208L19.7883 27.1867L16.2437 31.6607ZM28.8003 28.5208L17.5251 24.7442L32.8768 3.94115L28.8003 28.5208Z" fill="#FFFFF4"/>
</svg>
