<svg width="40" height="40" viewBox="0 0 40 40" fill="none" xmlns="http://www.w3.org/2000/svg">
<path d="M30.3611 13.4148C29.846 12.9056 29.1791 12.578 28.4613 12.4817L39.7933 1.15082C39.9887 0.962524 40.0505 0.674591 39.9494 0.422763C39.8484 0.170935 39.6048 0.00548371 39.3334 0.00440762H25.5416C23.9617 0.010249 22.4487 0.643166 21.3354 1.76402L13.4163 9.64228C12.9066 10.1562 12.5809 10.8239 12.4897 11.5419L1.15761 0.211029C0.970072 0.0107219 0.678927 -0.0542001 0.424037 0.0474499C0.169148 0.1491 0.00260357 0.396548 0.00440811 0.670927V14.4612C0.00138399 16.0525 0.635051 17.5789 1.76421 18.7003L9.64334 26.5852C10.1573 27.0948 10.8251 27.4205 11.5431 27.5117L0.211052 38.8425C0.010723 39.03 -0.054206 39.3212 0.0474551 39.576C0.149116 39.8309 0.396592 39.9974 0.671001 39.9956H14.4628C16.0543 39.9986 17.5808 39.365 18.7023 38.236L26.5881 30.3577C27.0978 29.8438 27.4235 29.1761 27.5147 28.4581L38.8468 39.789C39.0343 39.9893 39.3255 40.0542 39.5804 39.9526C39.8352 39.8509 40.0018 39.6035 40 39.3291V25.5388C39.9941 23.959 39.3612 22.4463 38.2402 21.333L30.3611 13.4148ZM29.4145 14.3612L34.5006 19.4401C33.654 19.2935 34.294 19.3335 21.6087 19.3335L26.5881 14.3612C27.3689 13.5815 28.6337 13.5815 29.4145 14.3612ZM20.6688 6.6696C20.6688 3.72474 23.0563 1.33745 26.0015 1.33745H37.7269L20.6688 18.3937V6.6696ZM1.33759 14.0013V2.27724L18.3957 19.3335H6.67034C3.72514 19.3335 1.33759 16.9462 1.33759 14.0013ZM10.5899 25.6388L5.5038 20.5599C6.35037 20.7065 5.67711 20.6665 18.3957 20.6665L13.4163 25.6388C12.6355 26.4185 11.3707 26.4185 10.5899 25.6388ZM19.3356 33.3304C19.3356 36.2753 16.9481 38.6626 14.0029 38.6626H2.27749L19.3356 21.6063V33.3304ZM19.3356 18.3937L14.3628 13.4148C13.583 12.6341 13.583 11.3694 14.3628 10.5887L19.4423 5.5032C19.2956 6.34968 19.3356 5.67649 19.3356 18.3937ZM25.6416 29.4113L20.5621 34.4968C20.7088 33.6503 20.6688 34.3235 20.6688 21.6063L25.6416 26.5852C26.4214 27.3659 26.4214 28.6306 25.6416 29.4113ZM38.6668 37.7228L21.6087 20.6665H33.3341C36.2792 20.6665 38.6668 23.0538 38.6668 25.9987V37.7228Z" fill="url(#paint0_linear)"/>
<defs>
<linearGradient id="paint0_linear" x1="20" y1="0" x2="20" y2="40" gradientUnits="userSpaceOnUse">
<stop stop-color="#DDC2AE"/>
<stop offset="1" stop-color="#0A0402"/>
</linearGradient>
</defs>
</svg>
