<svg width="40" height="41" viewBox="0 0 40 41" fill="none" xmlns="http://www.w3.org/2000/svg">
<path d="M30.3611 13.6165C29.846 13.1048 29.1791 12.7757 28.4613 12.6788L39.7933 1.29311C39.9887 1.1039 40.0505 0.814577 39.9494 0.561529C39.8484 0.308482 39.6048 0.142229 39.3334 0.141148H25.5416C23.9617 0.147017 22.4487 0.782999 21.3354 1.90928L13.4163 9.8257C12.9066 10.3421 12.5809 11.0131 12.4897 11.7345L1.15761 0.348769C0.970072 0.147493 0.678927 0.0822562 0.424037 0.184398C0.169148 0.286541 0.00260357 0.535188 0.00440811 0.810895V14.668C0.00138399 16.267 0.635051 17.8008 1.76421 18.9276L9.64334 26.8507C10.1573 27.3627 10.8251 27.69 11.5431 27.7816L0.211052 39.1674C0.010723 39.3558 -0.054206 39.6483 0.0474551 39.9044C0.149116 40.1605 0.396592 40.3278 0.671001 40.326H14.4628C16.0543 40.3291 17.5808 39.6924 18.7023 38.5579L26.5881 30.6415C27.0978 30.1251 27.4235 29.4541 27.5147 28.7327L38.8468 40.1184C39.0343 40.3197 39.3255 40.3849 39.5804 40.2828C39.8352 40.1806 40.0018 39.932 40 39.6563V25.7992C39.9941 24.2118 39.3612 22.6917 38.2402 21.5731L30.3611 13.6165ZM29.4145 14.5675L34.5006 19.671C33.654 19.5236 34.2939 19.5638 21.6087 19.5638L26.5881 14.5675C27.3689 13.784 28.6337 13.784 29.4145 14.5675ZM20.6688 6.83862C20.6688 3.87949 23.0563 1.48064 26.0015 1.48064H37.7269L20.6688 18.6195V6.83862ZM1.33759 14.2059V2.42499L18.3957 19.5638H6.67034C3.72514 19.5638 1.33759 17.165 1.33759 14.2059ZM10.5899 25.8996L5.5038 20.7962C6.35037 20.9435 5.67711 20.9033 18.3957 20.9033L13.4163 25.8996C12.6355 26.6831 11.3707 26.6831 10.5899 25.8996ZM19.3356 33.6285C19.3356 36.5877 16.9481 38.9865 14.0029 38.9865H2.27749L19.3356 21.8477V33.6285ZM19.3356 18.6195L14.3628 13.6165C13.583 12.832 13.583 11.5612 14.3628 10.7767L19.4423 5.66657C19.2956 6.51715 19.3356 5.8407 19.3356 18.6195ZM25.6416 29.6904L20.5621 34.8006C20.7088 33.95 20.6688 34.6265 20.6688 21.8477L25.6416 26.8507C26.4214 27.6351 26.4214 28.906 25.6416 29.6904ZM38.6668 38.0422L21.6087 20.9033H33.3341C36.2793 20.9033 38.6668 23.3022 38.6668 26.2613V38.0422Z" fill="#0A0402"/>
</svg>
