<svg width="40" height="41" viewBox="0 0 40 41" fill="none" xmlns="http://www.w3.org/2000/svg">
<path d="M30.3611 13.4798C29.846 12.9681 29.1791 12.639 28.4613 12.5421L39.7933 1.1564C39.9887 0.967185 40.0505 0.677858 39.9494 0.42481C39.8484 0.171763 39.6048 0.00551027 39.3334 0.00442897H25.5416C23.9617 0.0102986 22.4487 0.64628 21.3354 1.77256L13.4163 9.68898C12.9066 10.2054 12.5809 10.8763 12.4897 11.5978L1.15761 0.212051C0.970072 0.0107738 0.678927 -0.0544626 0.424037 0.0476797C0.169148 0.149822 0.00260357 0.398469 0.00440811 0.674177V14.5313C0.00138399 16.1303 0.635051 17.664 1.76421 18.7909L9.64334 26.714C10.1573 27.226 10.8251 27.5533 11.5431 27.6449L0.211052 39.0306C0.010723 39.2191 -0.054206 39.5116 0.0474551 39.7677C0.149116 40.0238 0.396592 40.1911 0.671001 40.1893H14.4628C16.0543 40.1923 17.5808 39.5557 18.7023 38.4212L26.5881 30.5047C27.0978 29.9884 27.4235 29.3174 27.5147 28.596L38.8468 39.9817C39.0343 40.183 39.3255 40.2482 39.5804 40.146C39.8352 40.0439 40.0018 39.7953 40 39.5195V25.6625C39.9941 24.0751 39.3612 22.555 38.2402 21.4364L30.3611 13.4798ZM29.4145 14.4308L34.5006 19.5343C33.654 19.3869 34.294 19.4271 21.6087 19.4271L26.5881 14.4308C27.3689 13.6473 28.6337 13.6473 29.4145 14.4308ZM20.6688 6.70191C20.6688 3.74277 23.0563 1.34392 26.0015 1.34392H37.7269L20.6688 18.4828V6.70191ZM1.33759 14.0691V2.28827L18.3957 19.4271H6.67034C3.72514 19.4271 1.33759 17.0283 1.33759 14.0691ZM10.5899 25.7629L5.5038 20.6594C6.35037 20.8068 5.67711 20.7666 18.3957 20.7666L13.4163 25.7629C12.6355 26.5464 11.3707 26.5464 10.5899 25.7629ZM19.3356 33.4918C19.3356 36.451 16.9481 38.8498 14.0029 38.8498H2.27749L19.3356 21.711V33.4918ZM19.3356 18.4828L14.3628 13.4798C13.583 12.6953 13.583 11.4245 14.3628 10.64L19.4423 5.52985C19.2956 6.38043 19.3356 5.70398 19.3356 18.4828ZM25.6416 29.5537L20.5621 34.6639C20.7088 33.8133 20.6688 34.4897 20.6688 21.711L25.6416 26.714C26.4214 27.4984 26.4214 28.7692 25.6416 29.5537ZM38.6668 37.9055L21.6087 20.7666H33.3341C36.2792 20.7666 38.6668 23.1655 38.6668 26.1246V37.9055Z" fill="#D8AC9C"/>
</svg>
