<svg width="103" height="103" viewBox="0 0 103 103" fill="none" xmlns="http://www.w3.org/2000/svg">
<rect width="103" height="103" fill="#E5E5E5"/>
<rect x="-243.5" y="-2351.5" width="413" height="5601" fill="#FFFFF4"/>
<circle cx="51.5" cy="51.5" r="51.5" fill="#EFD9D1"/>
<path d="M81.2986 47.2199C86.2394 46.8567 90 43.2174 90 38.6368C90 33.9261 86.0932 29.9074 81.2986 29.4936V22C80.2841 22 21.7522 22 20 22V83.2986H56.0787C56.4419 88.2394 60.0812 92 64.6618 92C69.3725 92 73.3912 88.0932 73.805 83.2986H81.3067L81.1948 54.7081C81.345 54.7081 81.2986 55.5373 81.2986 47.2199ZM24.1176 26.1176H48.5905V33.5761H51.8924C54.8697 33.5761 57.292 35.7146 57.292 38.3432C57.292 40.9839 54.8697 43.1322 51.8924 43.1322H48.5905V50.5905H45.2144C44.8058 45.8607 41.0121 41.8891 36.2065 41.8891C31.4291 41.8891 27.8567 45.8332 27.4899 50.5905H24.1176V26.1176ZM48.5905 79.1809H24.1176V54.7081H31.5761V51.4062C31.5761 48.7521 33.3081 46.0067 36.2065 46.0067C38.8765 46.0067 41.1322 48.4794 41.1322 51.4062V54.7081H48.5905V58.0795C43.9885 58.4233 39.3234 61.6392 39.3234 66.6618C39.3234 71.5531 43.8858 75.4 48.5905 75.8049V79.1809ZM69.7225 79.1809V82.4827C69.7225 85.3592 67.3577 87.8824 64.6616 87.8824C61.742 87.8824 60.1664 85.1003 60.1664 82.4827V79.1809H52.708C52.708 78.3957 52.708 72.5163 52.708 71.7225H49.406C46.7042 71.7225 43.4409 69.4651 43.4409 66.6616C43.4409 63.9727 46.5253 62.1664 49.406 62.1664H52.708C52.708 61.4645 52.708 56.5132 52.708 54.708H56.0839C56.4979 59.5026 60.5164 63.4094 65.2271 63.4094C69.8077 63.4094 73.4471 59.6487 73.8102 54.708H77.0769L77.1727 79.1808H69.7225V79.1809ZM80.4827 43.132H77.1809V50.5903C75.7222 50.5903 71.1755 50.5903 69.7225 50.5903V53.8923C69.7225 56.5099 68.147 59.2919 65.2273 59.2919C62.5313 59.2919 60.1664 56.7687 60.1664 53.8923V50.5903C59.3735 50.5903 53.4935 50.5903 52.708 50.5903V47.2172C57.5753 46.8286 61.4094 42.997 61.4094 38.3431C61.4094 33.7006 57.5752 29.8783 52.708 29.4907V26.1176H77.1808V33.5761H80.4826C83.3591 33.5761 85.8822 35.9408 85.8822 38.6369C85.8824 41.5566 83.1003 43.132 80.4827 43.132Z" fill="#0A0402"/>
<rect x="-243.5" y="-2351.5" width="413" height="5601" stroke="black"/>
</svg>
