<svg width="41" height="41" viewBox="0 0 41 41" fill="none" xmlns="http://www.w3.org/2000/svg">
<g clip-path="url(#clip0)">
<path d="M20.3531 0C9.9425 0 10.5917 4.53733 10.5917 4.53733L10.6036 9.23867H20.5359V10.6498H6.6625C6.6625 10.6498 0 9.88954 0 20.447C0 31.0045 5.81346 30.6287 5.81346 30.6287H9.28138V25.7309C9.28138 25.7309 9.09517 19.8884 15.0043 19.8884H24.8545C24.8545 19.8884 30.3895 19.9773 30.3895 14.5106V5.47008C30.3895 5.47008 31.2283 0 20.3514 0H20.3531ZM14.8762 3.16042C15.8636 3.16042 16.6631 3.96333 16.6631 4.95758C16.6631 5.95013 15.8636 6.75304 14.8762 6.75304C13.887 6.75304 13.0893 5.95013 13.0893 4.95758C13.0893 3.96333 13.887 3.16042 14.8762 3.16042Z" fill="#0A0402"/>
<path d="M20.6492 41C31.0563 41 30.4072 36.4627 30.4072 36.4627L30.3952 31.7613H20.463V30.3502H34.3398C34.3398 30.3502 41.0023 31.1105 41.0023 20.553C41.0023 9.99546 35.1871 10.3713 35.1871 10.3713H31.7192V15.2691C31.7192 15.2691 31.9054 21.1116 25.9963 21.1116H16.1477C16.1477 21.1116 10.6127 21.0227 10.6127 26.4894V35.5299C10.6127 35.5299 9.77222 41 20.6492 41ZM26.1261 37.8396C25.137 37.8396 24.3392 37.0367 24.3392 36.0424C24.3392 35.0499 25.137 34.247 26.1261 34.247C27.1135 34.247 27.913 35.0499 27.913 36.0424C27.913 37.0367 27.1135 37.8396 26.1261 37.8396Z" fill="#0A0402"/>
</g>
<defs>
<clipPath id="clip0">
<rect width="41" height="41" fill="white"/>
</clipPath>
</defs>
</svg>
