<svg width="45" height="41" viewBox="0 0 45 41" fill="none" xmlns="http://www.w3.org/2000/svg">
<path d="M45 20.9169C45 17.9356 41.2669 15.11 35.5425 13.3587C36.8644 7.52562 36.2775 2.88312 33.69 1.39625C33.063 1.0451 32.3534 0.868348 31.635 0.884375V2.92812C32.0569 2.92812 32.3963 3.0125 32.6813 3.16812C33.9281 3.88437 34.47 6.60687 34.0481 10.1112C33.9469 10.9737 33.7819 11.8812 33.5794 12.8075C31.6624 12.3456 29.7169 12.0117 27.7556 11.8081C26.5872 10.1962 25.3125 8.66401 23.94 7.22188C26.9306 4.44313 29.7375 2.92063 31.6463 2.92063V0.875C29.1225 0.875 25.8206 2.67312 22.4812 5.79125C19.1437 2.69375 15.84 0.9125 13.3181 0.9125V2.95625C15.2175 2.95625 18.0338 4.47125 21.0244 7.23125C19.74 8.58125 18.4556 10.1112 17.235 11.8081C15.2697 12.0094 13.3207 12.3465 11.4019 12.8169C11.19 11.9 11.0344 11.0112 10.9238 10.1581C10.4925 6.65188 11.025 3.92937 12.2644 3.20562C12.5381 3.04062 12.8963 2.96562 13.3181 2.96562V0.921875C12.5494 0.921875 11.85 1.08687 11.2463 1.43375C8.66813 2.92062 8.09063 7.55187 9.42 13.3681C3.71438 15.1306 0 17.945 0 20.9169C0 23.8981 3.73313 26.7237 9.4575 28.4731C8.13563 34.3081 8.7225 38.9506 11.31 40.4356C11.9063 40.7844 12.6037 40.9494 13.3725 40.9494C15.8962 40.9494 19.1981 39.1512 22.5375 36.0331C25.875 39.1325 29.1769 40.9119 31.7006 40.9119C32.4246 40.9272 33.1396 40.7499 33.7725 40.3981C36.3506 38.9131 36.9281 34.2819 35.5988 28.4656C41.2856 26.7144 45 23.8887 45 20.9169ZM33.0562 14.7987C32.7 16.0247 32.287 17.2335 31.8187 18.4212C31.0522 16.9302 30.2105 15.4789 29.2969 14.0731C30.6 14.2662 31.8563 14.5044 33.0581 14.7987H33.0562ZM28.8563 24.5675C28.1419 25.805 27.4069 26.9806 26.6456 28.0719C23.8936 28.3144 21.1257 28.3176 18.3731 28.0812C16.7943 25.826 15.4135 23.4383 14.2463 20.945C15.4117 18.4458 16.7866 16.0498 18.3562 13.7825C21.1076 13.5394 23.8749 13.5357 26.6269 13.7712C27.3881 14.8625 28.1325 16.0287 28.8469 17.2587C29.5444 18.4587 30.1781 19.6775 30.7556 20.9075C30.1717 22.1524 29.5381 23.3734 28.8563 24.5675V24.5675ZM31.8187 23.375C32.3137 24.6031 32.7375 25.8331 33.0844 27.0256C31.8844 27.32 30.6169 27.5675 29.3063 27.7587C30.2161 26.3402 31.0546 24.8771 31.8187 23.375V23.375ZM22.5188 33.1625C21.6656 32.2812 20.8125 31.3006 19.9687 30.2262C20.7937 30.2637 21.6375 30.2919 22.4906 30.2919C23.3531 30.2919 24.2062 30.2731 25.0406 30.2262C24.2156 31.3006 23.3625 32.2812 22.5188 33.1625ZM15.6937 27.7587C14.4295 27.5756 13.1744 27.3341 11.9325 27.035C12.2719 25.8519 12.6938 24.6312 13.17 23.4125C13.5469 24.1437 13.9425 24.8787 14.3737 25.6137C14.805 26.3469 15.2437 27.0631 15.6937 27.7587ZM22.4719 8.67125C23.325 9.5525 24.1781 10.5331 25.0219 11.6075C24.1969 11.57 23.3531 11.5419 22.5 11.5419C21.6375 11.5419 20.7844 11.5606 19.95 11.6075C20.775 10.5331 21.6281 9.5525 22.4719 8.67125ZM15.6844 14.075C14.7748 15.4905 13.9362 16.9504 13.1719 18.4494C12.6904 17.254 12.268 16.0356 11.9062 14.7987C13.1062 14.5137 14.3737 14.2662 15.6844 14.075ZM7.38375 25.5575C4.13625 24.1737 2.03625 22.3569 2.03625 20.9169C2.03625 19.4769 4.13625 17.6506 7.38375 16.2762C8.17125 15.9369 9.03375 15.6331 9.92438 15.35C10.4475 17.1462 11.1356 19.0175 11.9869 20.9356C11.1832 22.7397 10.5035 24.5965 9.9525 26.4931C9.08147 26.2234 8.22419 25.9112 7.38375 25.5575V25.5575ZM12.3188 38.6637C11.0719 37.9512 10.53 35.225 10.9519 31.7225C11.0531 30.86 11.2181 29.9506 11.4206 29.0244C13.2169 29.465 15.18 29.8044 17.2444 30.0256C18.4128 31.6375 19.6875 33.1697 21.06 34.6119C18.0694 37.3906 15.2625 38.9131 13.3538 38.9131C12.9936 38.9171 12.6381 38.832 12.3188 38.6656V38.6637ZM34.0762 31.6756C34.5075 35.18 33.975 37.9044 32.7356 38.6281C32.4619 38.7931 32.1037 38.8662 31.6819 38.8662C29.7825 38.8662 26.9662 37.3531 23.9756 34.5912C25.26 33.245 26.5444 31.7131 27.765 30.0162C29.7303 29.8149 31.6793 29.4779 33.5981 29.0075C33.81 29.9337 33.9731 30.8225 34.0762 31.6756V31.6756ZM37.6069 25.5575C36.8194 25.8969 35.9569 26.2006 35.0662 26.4837C34.5056 24.5775 33.8165 22.7113 33.0037 20.8981C33.8475 18.9912 34.5244 17.1294 35.0381 15.3406C35.9475 15.6237 36.8081 15.9369 37.6163 16.2762C40.8638 17.66 42.9637 19.4769 42.9637 20.9169C42.9544 22.3569 40.8544 24.1831 37.6069 25.5575V25.5575Z" fill="#0A0402"/>
<path d="M22.4904 25.1094C23.6023 25.1094 24.6686 24.6677 25.4549 23.8814C26.2411 23.0952 26.6828 22.0288 26.6828 20.9169C26.6828 19.8049 26.2411 18.7386 25.4549 17.9523C24.6686 17.1661 23.6023 16.7244 22.4904 16.7244C21.3784 16.7244 20.3121 17.1661 19.5258 17.9523C18.7396 18.7386 18.2979 19.8049 18.2979 20.9169C18.2979 22.0288 18.7396 23.0952 19.5258 23.8814C20.3121 24.6677 21.3784 25.1094 22.4904 25.1094V25.1094Z" fill="#0A0402"/>
</svg>
