<svg width="100" height="100" viewBox="0 0 100 100" fill="none" xmlns="http://www.w3.org/2000/svg">
<g clip-path="url(#clip0)">
<path d="M87.5694 36.0284C94.6276 35.5096 100 30.3106 100 23.7669C100 17.0373 94.4188 11.2963 87.5694 10.7051V0C86.1202 0 2.50314 0 0 0V87.5694H51.541C52.0598 94.6276 57.2588 100 63.8026 100C70.5322 100 76.2731 94.4188 76.8643 87.5694H87.581L87.4212 46.7259C87.6357 46.7259 87.5694 47.9104 87.5694 36.0284ZM5.88235 5.88235H40.8435V16.5373H45.5606C49.8139 16.5373 53.2743 19.5924 53.2743 23.3475C53.2743 27.1198 49.8139 30.1888 45.5606 30.1888H40.8435V40.8435H36.0206C35.4369 34.0867 30.0173 28.4129 23.1522 28.4129C16.3273 28.4129 11.2239 34.0475 10.6998 40.8435H5.88235V5.88235ZM40.8435 81.6871H5.88235V46.7259H16.5373V42.0088C16.5373 38.2173 19.0116 34.2953 23.1522 34.2953C26.9665 34.2953 30.1888 37.8276 30.1888 42.0088V46.7259H40.8435V51.5422C34.2692 52.0333 27.6049 56.6275 27.6049 63.8026C27.6049 70.7902 34.1225 76.2857 40.8435 76.8641V81.6871ZM71.0322 81.6871V86.4039C71.0322 90.5131 67.6539 94.1176 63.8024 94.1176C59.6314 94.1176 57.3806 90.1433 57.3806 86.4039V81.6871H46.7257C46.7257 80.5653 46.7257 72.1661 46.7257 71.0322H42.0086C38.1488 71.0322 33.4871 67.8073 33.4871 63.8024C33.4871 59.961 37.8933 57.3806 42.0086 57.3806H46.7257C46.7257 56.3778 46.7257 49.3045 46.7257 46.7257H51.5484C52.1398 53.5751 57.8806 59.1563 64.6102 59.1563C71.1539 59.1563 76.3529 53.7839 76.8718 46.7257H81.5384L81.6753 81.6869H71.0322V81.6871ZM86.4039 30.1886H81.6871V40.8433C79.6031 40.8433 73.1078 40.8433 71.0322 40.8433V45.5604C71.0322 49.2998 68.7814 53.2741 64.6104 53.2741C60.759 53.2741 57.3806 49.6696 57.3806 45.5604V40.8433C56.2478 40.8433 47.8478 40.8433 46.7257 40.8433V36.0245C53.679 35.4694 59.1563 29.9957 59.1563 23.3473C59.1563 16.7151 53.6788 11.2547 46.7257 10.701V5.88235H81.6869V16.5373H86.4037C90.5129 16.5373 94.1175 19.9155 94.1175 23.7671C94.1176 27.938 90.1433 30.1886 86.4039 30.1886V30.1886Z" fill="url(#paint0_linear)"/>
</g>
<defs>
<linearGradient id="paint0_linear" x1="50" y1="0" x2="50" y2="100" gradientUnits="userSpaceOnUse">
<stop stop-color="#DDC2AE"/>
<stop offset="1" stop-color="#0A0402"/>
</linearGradient>
<clipPath id="clip0">
<rect width="100" height="100" fill="white"/>
</clipPath>
</defs>
</svg>
