<svg width="35" height="36" viewBox="0 0 35 36" fill="none" xmlns="http://www.w3.org/2000/svg">
<path d="M35 4.68409C33.6984 5.39019 32.3116 5.85822 30.8656 6.08547C32.3531 4.98709 33.4884 3.26106 34.0222 1.18062C32.6353 2.20325 31.1041 2.92559 29.4722 3.32869C28.1553 1.59454 26.2784 0.520508 24.2309 0.520508C20.2584 0.520508 17.0603 4.50824 17.0603 9.39686C17.0603 10.1003 17.1084 10.7766 17.2266 11.4205C11.2612 11.0607 5.98281 7.52473 2.43687 2.13832C1.81781 3.46667 1.45469 4.98709 1.45469 6.62384C1.45469 9.69715 2.73438 12.4215 4.64187 13.9987C3.48906 13.9716 2.35812 13.5577 1.4 12.9057C1.4 12.9328 1.4 12.968 1.4 13.0031C1.4 17.3155 3.88719 20.8974 7.14875 21.7226C6.56469 21.9201 5.92812 22.0147 5.2675 22.0147C4.80813 22.0147 4.34437 21.9823 3.90906 21.8632C4.83875 25.3775 7.47688 27.9612 10.6138 28.045C8.1725 30.4068 5.07281 31.8299 1.71719 31.8299C1.12875 31.8299 0.564375 31.7974 0 31.7081C3.17844 34.243 6.94531 35.6904 11.0075 35.6904C24.2113 35.6904 31.43 22.1635 31.43 10.4384C31.43 10.0461 31.4191 9.66739 31.4037 9.29135C32.8278 8.04146 34.0244 6.48046 35 4.68409Z" fill="#FFFFF4"/>
</svg>
