<svg width="44" height="44" viewBox="0 0 44 44" fill="none" xmlns="http://www.w3.org/2000/svg">
<path d="M34.74 21.0457C34.74 18.7137 33.9012 17.0995 33.1835 15.8427L32.9635 15.4852C32.0917 14.0827 31.33 12.8507 31.33 11.4152C31.33 9.68272 32.6445 8.06572 34.498 8.06572C34.553 8.06572 34.6052 8.07122 34.6575 8.07397L34.7427 8.08222C31.2672 4.88986 26.7184 3.12099 21.9992 3.12672C18.8716 3.12512 15.7927 3.90173 13.0399 5.38659C10.2872 6.87145 7.94719 9.01788 6.23074 11.6325C6.67074 11.6462 7.09149 11.6572 7.44624 11.6572C9.41799 11.6572 12.4732 11.418 12.4732 11.418C13.4907 11.3575 13.6117 12.8507 12.5942 12.9717C12.5942 12.9717 11.574 13.0927 10.4355 13.1505L17.3105 33.594L21.4355 21.2025L18.493 13.1477C17.4782 13.0872 16.5157 12.969 16.5157 12.969C15.4982 12.9085 15.6192 11.352 16.634 11.4125C16.634 11.4125 19.7525 11.6517 21.606 11.6517C23.5805 11.6517 26.6385 11.4125 26.6385 11.4125C27.656 11.352 27.7742 12.848 26.7567 12.969C26.7567 12.969 25.7337 13.0872 24.598 13.1477L31.418 33.4345L33.299 27.1452L33.4475 26.6695C34.19 24.3045 34.7372 22.5582 34.7372 21.043L34.74 21.0457ZM3.12599 22C3.1258 25.544 4.12336 29.0165 6.0045 32.0201C7.88564 35.0237 10.5744 37.4371 13.763 38.984L4.75674 14.3165C3.67828 16.7343 3.12257 19.3526 3.12599 22V22Z" fill="#0A0402"/>
<path d="M16.667 40.1033L22.332 23.6501L28.1317 39.5451C28.1702 39.6358 28.2142 39.7211 28.2665 39.8036C24.5277 41.1208 20.4688 41.2257 16.667 40.1033V40.1033ZM38.557 12.9443C38.6395 13.5466 38.6862 14.1901 38.6862 14.8858C38.6862 16.7998 38.3287 18.9531 37.2507 21.6453L31.4867 38.3103C35.7402 35.8391 38.8601 31.8041 40.1814 27.0656C41.5026 22.3271 40.9207 17.26 38.5597 12.9443H38.557Z" fill="#0A0402"/>
<path fill-rule="evenodd" clip-rule="evenodd" d="M0 22C0 9.86975 9.86975 0 22 0C34.1275 0 44 9.86975 44 22C44 34.1302 34.1275 44 22 44C9.86975 44 0 34.1302 0 22ZM1.00925 22C1.00925 33.5748 10.4252 42.9908 22 42.9908C33.572 42.9908 42.988 33.5748 42.988 22C42.988 10.4225 33.572 1.00925 22 1.00925C10.4225 1.00925 1.00925 10.4225 1.00925 22Z" fill="#0A0402"/>
</svg>
